<?xml version="1.0" encoding="UTF-8" standalone="no"?>
<svg
   fill="#000000"
   width="480"
   height="480"
   viewBox="0 0 19.2 19.2"
   id="icon"
   version="1.1"
   sodipodi:docname="chat-large.svg"
   inkscape:version="1.4.2 (f4327f4, 2025-05-13)"
   xmlns:inkscape="http://www.inkscape.org/namespaces/inkscape"
   xmlns:sodipodi="http://sodipodi.sourceforge.net/DTD/sodipodi-0.dtd"
   xmlns="http://www.w3.org/2000/svg"
   xmlns:svg="http://www.w3.org/2000/svg">
  <defs
     id="defs1" />
  <sodipodi:namedview
     id="namedview1"
     pagecolor="#ffffff"
     bordercolor="#000000"
     borderopacity="0.25"
     inkscape:showpageshadow="2"
     inkscape:pageopacity="0.0"
     inkscape:pagecheckerboard="0"
     inkscape:deskcolor="#d1d1d1"
     inkscape:zoom="1"
     inkscape:cx="108.5"
     inkscape:cy="286.5"
     inkscape:window-width="1920"
     inkscape:window-height="1046"
     inkscape:window-x="-11"
     inkscape:window-y="-11"
     inkscape:window-maximized="1"
     inkscape:current-layer="icon" />
  <g
     id="g25"
     style="display:none"
     inkscape:label="eyebuild">
    <path
       id="path2"
       style="fill:#ededed;stroke:#000000;stroke-width:0.105059"
       d="m -5.0699127,6.292285 c -0.1463916,0.9763711 -0.520003,1.7876371 -1.1614592,1.7876371 -0.6414562,0 -0.9197212,-0.8304047 -1.1614592,-1.7876371 -0.215339,-0.8526978 0.00857,-1.7876371 1.1614592,-1.7876371 1.2336384,0 1.2691287,1.0695261 1.1614592,1.7876371 z"
       sodipodi:nodetypes="sssss" />
    <path
       id="path5"
       style="fill:#31a3d9;fill-opacity:1;stroke:#000000;stroke-width:0.0808919"
       d="m -5.1833214,6.5614587 c -0.1127161,0.751773 -0.4003848,1.3764206 -0.8942845,1.3764206 -0.4938998,0 -0.7081546,-0.6393836 -0.8942846,-1.3764206 -0.1658038,-0.6565486 0.0066,-1.3764205 0.8942846,-1.3764205 0.9498602,0 0.9771864,0.8234992 0.8942845,1.3764205 z"
       sodipodi:nodetypes="sssss" />
    <path
       id="path6"
       style="fill:#abdbef;fill-opacity:1;stroke:none;stroke-width:0.0803753"
       d="m -6.0090675,5.8178231 c -0.4560291,0.031102 -0.7971127,0.597473 -0.7618171,1.265 0.00163,0.030949 0.00408,0.061832 0.00733,0.092579 0.1528107,0.402717 0.3545917,0.7363349 0.677128,0.7363349 0.4816047,0 0.7463343,-0.6196353 0.8715321,-1.4061541 C -5.3669624,6.0641936 -5.6758616,5.7951011 -6.009063,5.8178231 Z"
       sodipodi:nodetypes="sccscss" />
  </g>
  <rect
     style="fill:#f1454c;fill-opacity:1;stroke:none;stroke-width:0.0397406;stroke-linejoin:miter;stroke-dasharray:none;stroke-opacity:1"
     id="rect46"
     width="12.880001"
     height="10.405791"
     x="3.2000012"
     y="3.1199996"
     ry="1.24"
     inkscape:label="face" />
  <path
     d="M 10.4679,16.6 9.6,16.1 l 2,-3.5 h 3 a 0.99829999,0.99829999 0 0 0 1,-1 V 4.6000001 a 0.99829999,0.99829999 0 0 0 -1,-1 H 4.6000001 a 0.99829999,0.99829999 0 0 0 -1,1 V 11.6 a 0.99829999,0.99829999 0 0 0 1,1 H 9.1 v 1 H 4.6000001 A 1.99965,1.99965 0 0 1 2.6,11.6 V 4.6000001 a 1.9994,1.9994 0 0 1 2.0000001,-2 H 14.6 a 1.9994,1.9994 0 0 1 2,2 V 11.6 a 1.99965,1.99965 0 0 1 -2,2 h -2.4177 z"
     id="path4"
     fill="#20b2aa"
     stroke="#08736e"
     stroke-width="0.2"
     class="bubble"
     style="stroke:none"
     inkscape:label="chat-path" />
  <g
     id="g40"
     inkscape:label="eye"
     transform="translate(0.19893265)">
    <g
       id="g28"
       inkscape:label="eye-1"
       style="display:inline"
       transform="translate(14.396695,-6.0811182)">
      <g
         id="g26"
         style="display:inline"
         inkscape:label="eye-lense-1">
        <g
           id="g22"
           style="display:inline">
          <g
             id="g17"
             style="display:inline">
            <path
               id="path16"
               style="fill:#ededed;stroke:#000000;stroke-width:0.105059"
               d="m -7.0498437,11.261563 c -1.1528892,0 -1.3767453,0.934881 -1.1614063,1.787578 0.093699,0.371028 0.1928656,0.723052 0.3165625,1.015 0.5793531,0.0416 1.0825531,0.130396 1.5890625,0.281562 0.2041001,-0.327465 0.3412804,-0.789773 0.4172656,-1.296562 0.1076695,-0.718111 0.072154,-1.787578 -1.1614843,-1.787578 z" />
            <g
               id="g15"
               style="display:inline">
              <path
                 id="path14"
                 style="display:inline;fill:#31a3d9;fill-opacity:1;stroke:#000000;stroke-width:0.0808919"
                 d="m -6.8960156,11.941953 c -0.8876846,0 -1.0601007,0.719857 -0.8942969,1.376406 0.071702,0.283926 0.147525,0.553371 0.2419531,0.777344 0.4278436,0.04774 0.8196652,0.125749 1.2125,0.241094 0.1642309,-0.253132 0.273982,-0.617724 0.3340625,-1.018438 0.082902,-0.552921 0.055642,-1.376406 -0.8942187,-1.376406 z" />
              <path
                 id="path13"
                 style="fill:#abdbef;fill-opacity:1;stroke:none;stroke-width:0.0803753"
                 d="m -6.7653125,12.573828 c -0.020603,-8.3e-4 -0.041362,-5.61e-4 -0.062187,8.59e-4 -0.4560291,0.0311 -0.7970925,0.597474 -0.7617969,1.265001 0.00163,0.03095 0.00402,0.06183 0.00727,0.09258 0.021797,0.05744 0.044596,0.113479 0.068594,0.167343 0.4003805,0.04644 0.7697969,0.119789 1.1390625,0.225938 0.163345,-0.256213 0.2728574,-0.634863 0.3410156,-1.063047 -0.1425636,-0.413802 -0.42291,-0.676214 -0.7319531,-0.688672 z" />
            </g>
          </g>
        </g>
        <g
           id="g23"
           style="display:inline">
          <path
             style="fill:none;fill-opacity:1;stroke:#000000;stroke-width:0.14;stroke-dasharray:none;stroke-opacity:1"
             d="m -8.0123317,14.053464 c 0.7163724,0.01171 1.2216762,0.108728 1.8100741,0.346859"
             id="path15"
             sodipodi:nodetypes="cc" />
          <path
             style="fill:#000000;fill-opacity:1;stroke:none;stroke-width:0.088;stroke-linejoin:miter;stroke-dasharray:none;stroke-opacity:1"
             d="m -7.9690936,14.064354 1.2657215,0.152026 c 0,0 -0.8310041,-0.07649 -0.9139358,0.199757 -0.047576,-0.151552 0.017677,-0.236882 0.017677,-0.236882 0,0 -0.1765197,-0.05124 -0.7583719,0.09723 0.1411645,-0.190941 0.3889091,-0.212128 0.3889091,-0.212128 z"
             id="path20"
             sodipodi:nodetypes="cccccc" />
          <path
             style="display:inline;fill:#000000;fill-opacity:1;stroke:none;stroke-width:0.088;stroke-linejoin:miter;stroke-dasharray:none;stroke-opacity:1"
             d="m -8.22,11.97 c -0.1676891,0.246293 -0.6888115,0.0033 -0.755,-0.33 0.5489423,0.197372 0.68,-0.01 0.68,-0.01 0,0 -0.4594254,0.03338 -0.39,-0.765 0.511721,0.68753 0.78,0.435 0.78,0.435 0,0 -0.3468542,-0.137661 -0.255,-0.475 0.3968542,0.587661 1.2183989,0.169784 1.56,0.445 -1.2733989,-0.0848 -1.4273109,0.373707 -1.62,0.7 z"
             id="path28"
             sodipodi:nodetypes="cccccccc" />
        </g>
      </g>
      <g
         id="g27"
         inkscape:label="eye-ball-1">
        <ellipse
           style="display:inline;fill:#000000;fill-opacity:1;stroke:none;stroke-width:0.080157;stroke-linejoin:miter;stroke-dasharray:none;stroke-opacity:1"
           id="path21"
           cx="-8.5731726"
           cy="12.279563"
           rx="0.50098115"
           ry="0.76513493"
           transform="rotate(-7.3981438)" />
        <ellipse
           style="display:inline;fill:#ffffff;fill-opacity:1;stroke:none;stroke-width:0.00965436;stroke-linejoin:miter;stroke-dasharray:none;stroke-opacity:1"
           id="ellipse22"
           cx="-6.3087358"
           cy="13.889345"
           rx="0.066562809"
           ry="0.083540805"
           transform="matrix(0.99978091,0.02093167,-0.03100394,0.99951926,0,0)" />
        <ellipse
           style="display:inline;fill:#ffffff;fill-opacity:1;stroke:none;stroke-width:0.0317404;stroke-linejoin:miter;stroke-dasharray:none;stroke-opacity:1"
           id="ellipse21"
           cx="-6.7388682"
           cy="12.941947"
           rx="0.20739719"
           ry="0.28980026"
           transform="matrix(0.99972837,0.02330629,-0.02784615,0.99961222,0,0)" />
      </g>
    </g>
    <g
       id="g39"
       inkscape:label="eye-2"
       style="display:inline"
       transform="matrix(-1,0,0,1,4.4054397,-6.0811182)">
      <g
         id="g36"
         style="display:inline"
         inkscape:label="eye-lense-1">
        <g
           id="g33"
           style="display:inline">
          <g
             id="g32"
             style="display:inline">
            <path
               id="path29"
               style="fill:#ededed;stroke:#000000;stroke-width:0.105059"
               d="m -7.0498437,11.261563 c -1.1528892,0 -1.3767453,0.934881 -1.1614063,1.787578 0.093699,0.371028 0.1928656,0.723052 0.3165625,1.015 0.5793531,0.0416 1.0825531,0.130396 1.5890625,0.281562 0.2041001,-0.327465 0.3412804,-0.789773 0.4172656,-1.296562 0.1076695,-0.718111 0.072154,-1.787578 -1.1614843,-1.787578 z" />
            <g
               id="g31"
               style="display:inline">
              <path
                 id="path30"
                 style="display:inline;fill:#31a3d9;fill-opacity:1;stroke:#000000;stroke-width:0.0808919"
                 d="m -6.8960156,11.941953 c -0.8876846,0 -1.0601007,0.719857 -0.8942969,1.376406 0.071702,0.283926 0.147525,0.553371 0.2419531,0.777344 0.4278436,0.04774 0.8196652,0.125749 1.2125,0.241094 0.1642309,-0.253132 0.273982,-0.617724 0.3340625,-1.018438 0.082902,-0.552921 0.055642,-1.376406 -0.8942187,-1.376406 z" />
              <path
                 id="path31"
                 style="fill:#abdbef;fill-opacity:1;stroke:none;stroke-width:0.0803753"
                 d="m -6.7653125,12.573828 c -0.020603,-8.3e-4 -0.041362,-5.61e-4 -0.062187,8.59e-4 -0.4560291,0.0311 -0.7970925,0.597474 -0.7617969,1.265001 0.00163,0.03095 0.00402,0.06183 0.00727,0.09258 0.021797,0.05744 0.044596,0.113479 0.068594,0.167343 0.4003805,0.04644 0.7697969,0.119789 1.1390625,0.225938 0.163345,-0.256213 0.2728574,-0.634863 0.3410156,-1.063047 -0.1425636,-0.413802 -0.42291,-0.676214 -0.7319531,-0.688672 z" />
            </g>
          </g>
        </g>
        <g
           id="g35"
           style="display:inline">
          <path
             style="fill:none;fill-opacity:1;stroke:#000000;stroke-width:0.14;stroke-dasharray:none;stroke-opacity:1"
             d="m -8.0123317,14.053464 c 0.7163724,0.01171 1.2216762,0.108728 1.8100741,0.346859"
             id="path33"
             sodipodi:nodetypes="cc" />
          <path
             style="fill:#000000;fill-opacity:1;stroke:none;stroke-width:0.088;stroke-linejoin:miter;stroke-dasharray:none;stroke-opacity:1"
             d="m -7.9690936,14.064354 1.2657215,0.152026 c 0,0 -0.8310041,-0.07649 -0.9139358,0.199757 -0.047576,-0.151552 0.017677,-0.236882 0.017677,-0.236882 0,0 -0.1765197,-0.05124 -0.7583719,0.09723 0.1411645,-0.190941 0.3889091,-0.212128 0.3889091,-0.212128 z"
             id="path34"
             sodipodi:nodetypes="cccccc" />
          <path
             style="display:inline;fill:#000000;fill-opacity:1;stroke:none;stroke-width:0.088;stroke-linejoin:miter;stroke-dasharray:none;stroke-opacity:1"
             d="m -8.22,11.97 c -0.1676891,0.246293 -0.6888115,0.0033 -0.755,-0.33 0.5489423,0.197372 0.68,-0.01 0.68,-0.01 0,0 -0.4594254,0.03338 -0.39,-0.765 0.511721,0.68753 0.78,0.435 0.78,0.435 0,0 -0.3468542,-0.137661 -0.255,-0.475 0.3968542,0.587661 1.2183989,0.169784 1.56,0.445 -1.2733989,-0.0848 -1.4273109,0.373707 -1.62,0.7 z"
             id="path35"
             sodipodi:nodetypes="cccccccc" />
        </g>
      </g>
      <g
         id="g38"
         inkscape:label="eye-ball-1">
        <ellipse
           style="display:inline;fill:#000000;fill-opacity:1;stroke:none;stroke-width:0.080157;stroke-linejoin:miter;stroke-dasharray:none;stroke-opacity:1"
           id="ellipse36"
           cx="-8.5731726"
           cy="12.279563"
           rx="0.50098115"
           ry="0.76513493"
           transform="rotate(-7.3981438)" />
        <ellipse
           style="display:inline;fill:#ffffff;fill-opacity:1;stroke:none;stroke-width:0.00965436;stroke-linejoin:miter;stroke-dasharray:none;stroke-opacity:1"
           id="ellipse37"
           cx="-6.3087358"
           cy="13.889345"
           rx="0.066562809"
           ry="0.083540805"
           transform="matrix(0.99978091,0.02093167,-0.03100394,0.99951926,0,0)" />
        <ellipse
           style="display:inline;fill:#ffffff;fill-opacity:1;stroke:none;stroke-width:0.0317404;stroke-linejoin:miter;stroke-dasharray:none;stroke-opacity:1"
           id="ellipse38"
           cx="-6.7388682"
           cy="12.941947"
           rx="0.20739719"
           ry="0.28980026"
           transform="matrix(0.99972837,0.02330629,-0.02784615,0.99961222,0,0)" />
      </g>
    </g>
  </g>
  <g
     id="g47"
     inkscape:label="mouth">
    <path
       style="fill:#000000;fill-opacity:1;stroke:none;stroke-width:0.02;stroke-linejoin:miter;stroke-dasharray:none;stroke-opacity:1"
       d="M 7.6,10.45 C 7.922434,8.5687978 9.844141,8.6280423 11.94,11.01 9.4117937,9.1238218 8.2886364,9.0515545 7.6,10.45 Z"
       id="path43"
       sodipodi:nodetypes="ccc"
       inkscape:label="sad-mouth" />
    <g
       id="g46"
       inkscape:label="dimples">
      <path
         style="fill:#000000;fill-opacity:1;stroke:none;stroke-width:0.02;stroke-linejoin:miter;stroke-dasharray:none;stroke-opacity:1"
         d="m 11.755,11.275 c 0.385218,-0.04493 0.44075,-0.123732 0.41,-0.5 0.16425,0.453732 -8.5e-5,0.546566 -0.41,0.5 z"
         id="path44"
         sodipodi:nodetypes="ccc"
         inkscape:label="dimple-1" />
      <path
         style="fill:#000000;fill-opacity:1;stroke:none;stroke-width:0.02;stroke-linejoin:miter;stroke-dasharray:none;stroke-opacity:1"
         d="m 7.5321853,10.371321 c 0.050393,0.178231 0.061375,0.141646 0.2218041,0.08591 -0.1874029,0.122518 -0.1982223,0.08659 -0.2218041,-0.08591 z"
         id="path45"
         sodipodi:nodetypes="ccc"
         inkscape:label="dimple 2" />
    </g>
    <path
       style="fill:#000000;fill-opacity:1;stroke:none;stroke-width:0.02;stroke-linejoin:miter;stroke-dasharray:none;stroke-opacity:1"
       d="M 8.555992,10.06213 C 8.6735349,9.9147232 8.7336915,9.938564 9.7934288,10.07627 8.9036528,9.8671751 8.5371358,9.8103016 8.555992,10.06213 Z"
       id="path46"
       sodipodi:nodetypes="ccc"
       inkscape:label="lower-lip" />
  </g>
</svg>
